<svg width="512" height="512" viewBox="0 0 512 512" fill="none" xmlns="http://www.w3.org/2000/svg">
  <defs>
    <linearGradient id="logo-gradient" x1="0%" y1="0%" x2="100%" y2="100%">
      <stop offset="0%" style="stop-color:#FF4F17" />
      <stop offset="100%" style="stop-color:#FF8C42" />
    </linearGradient>
    <filter id="shadow" x="-20%" y="-20%" width="140%" height="140%">
      <feGaussianBlur in="SourceAlpha" stdDeviation="10" />
      <feOffset dx="0" dy="10" result="offsetblur" />
      <feComponentTransfer>
        <feFuncA type="linear" slope="0.3" />
      </feComponentTransfer>
      <feMerge>
        <feMergeNode />
        <feMergeNode in="SourceGraphic" />
      </feMerge>
    </filter>
  </defs>
  
  <g filter="url(#shadow)">
    <!-- Main P Shape -->
    <path 
      d="M160 120C160 108.954 168.954 100 180 100H320C386.274 100 440 153.726 440 220C440 286.274 386.274 340 320 340H220V400C220 411.046 211.046 420 200 420H180C168.954 420 160 411.046 160 400V120Z" 
      fill="url(#logo-gradient)" 
    />
    
    <!-- Pocket Cutout / Fold -->
    <path 
      d="M220 200C220 188.954 228.954 180 240 180H320C342.091 180 360 197.909 360 220C360 242.091 342.091 260 320 260H220V200Z" 
      fill="white" 
      fill-opacity="0.2"
    />
    
    <!-- Data Points (RAG bits) -->
    <circle cx="260" cy="220" r="10" fill="white" />
    <circle cx="300" cy="210" r="8" fill="white" />
    <circle cx="320" cy="235" r="12" fill="white" />
    
    <!-- Connecting Line -->
    <path 
      d="M260 220 L300 210 L320 235" 
      stroke="white" 
      stroke-width="3" 
      stroke-linecap="round" 
      stroke-linejoin="round"
      opacity="0.6"
    />
  </g>
</svg>
